<svg xmlns="http://www.w3.org/2000/svg" width="28" height="28" viewBox="0 0 24 24"><defs><linearGradient id="g" x1="0" x2="1"><stop offset="0" stop-color="#f2cf86"/><stop offset="1" stop-color="#9c6b2b"/></linearGradient></defs><rect width="24" height="24" rx="6" fill="#17120c"/><g fill="url(#g)"><path d="M19.4 13.5c.1-.5.1-1 .1-1.5s0-1-.1-1.5l2-1.5-2-3.5-2.4 1a7 7 0 00-2.6-1.5L14 2h-4l-.4 2.5A7 7 0 007 6L4.6 5l-2 3.5 2 1.5A8 8 0 004.5 12c0 .5 0 1 .1 1.5l-2 1.5 2 3.5 2.4-1a7 7 0 002.6 1.5L10 22h4l.4-2.5A7 7 0 0017 18l2.4 1 2-3.5-2-1.5zM12 15.5A3.5 3.5 0 1112 8a3.5 3.5 0 010 7z"/></g></svg>